# xmcd CD database file
#
# Track frame offsets:
#	150
#	11307
#	30677
#	46752
#	59042
#	78523
#	96785
#	114295
#	129959
#	159213
#	172377
#	189364
#
# Disc length: 2920 seconds
#
# Revision: 2
# Processed by: cddbd v1.5.1PL0 Copyright (c) Steve Scherf et al.
# Submitted via: CDex 1.51
#
DISCID=8e0b660c
DTITLE=Supersuckers - Country Show San Diego - Bonus CD w/ DVD
DYEAR=2004
DGENRE=Country
TTITLE0=Dead In The Water
TTITLE1=The Captain
TTITLE2=Creepy Jackalope Eye
TTITLE3=Double Wide
TTITLE4=Sail On
TTITLE5=Barricade
TTITLE6=Marie
TTITLE7=Pretty Fucked Up
TTITLE8=Killer Weed
TTITLE9=Drivin' Nails In My Coffin
TTITLE10=The Image Of Me
TTITLE11=Born With A Tail
EXTD=YEAR: 2004
EXTT0=
EXTT1=
EXTT2=
EXTT3=
EXTT4=
EXTT5=
EXTT6=
EXTT7=
EXTT8=
EXTT9=
EXTT10=
EXTT11=
PLAYORDER=
